HIERARCHY
ROOT root
{
	OFFSET 0.000000 0.000000 0.000000
	CHANNELS 6 Xposition Yposition Zposition Zrotation Yrotation Xrotation
	JOINT lhip
	{
		OFFSET 0.058581 -0.082280 -0.017664
		CHANNELS 3 Zrotation Yrotation Xrotation
		JOINT lknee
		{
			OFFSET 0.043451 -0.386469 0.008037
			CHANNELS 3 Zrotation Yrotation Xrotation
			JOINT lankle
			{
				OFFSET -0.014790 -0.426874 -0.037428
				CHANNELS 3 Zrotation Yrotation Xrotation
				JOINT ltoe
				{
					OFFSET 0.041054 -0.060286 0.122042
					CHANNELS 3 Zrotation Yrotation Xrotation
					End Site
					{
						OFFSET 0.000000 0.000000 0.000000
					}
				}
			}
		}
	}
	JOINT rhip
	{
		OFFSET -0.060310 -0.090513 -0.013543
		CHANNELS 3 Zrotation Yrotation Xrotation
		JOINT rknee
		{
			OFFSET -0.043257 -0.383688 -0.004843
			CHANNELS 3 Zrotation Yrotation Xrotation
			JOINT rankle
			{
				OFFSET 0.019056 -0.420046 -0.034562
				CHANNELS 3 Zrotation Yrotation Xrotation
				JOINT rtoe
				{
					OFFSET -0.034840 -0.062106 0.130323
					CHANNELS 3 Zrotation Yrotation Xrotation
					End Site
					{
						OFFSET 0.000000 0.000000 0.000000
					}
				}
			}
		}
	}
	JOINT lowerback
	{
		OFFSET 0.004439 0.124404 -0.038385
		CHANNELS 3 Zrotation Yrotation Xrotation
		JOINT upperback
		{
			OFFSET 0.004488 0.137956 0.026820
			CHANNELS 3 Zrotation Yrotation Xrotation
			JOINT chest
			{
				OFFSET -0.002265 0.056032 0.002855
				CHANNELS 3 Zrotation Yrotation Xrotation
				JOINT lowerneck
				{
					OFFSET -0.013390 0.211636 -0.033468
					CHANNELS 3 Zrotation Yrotation Xrotation
					JOINT upperneck
					{
						OFFSET 0.010113 0.088937 0.050410
						CHANNELS 3 Zrotation Yrotation Xrotation
						End Site
						{
							OFFSET 0.000000 0.000000 0.000000
						}
					}
				}
				JOINT lclavicle
				{
					OFFSET 0.071702 0.114000 -0.018898
					CHANNELS 3 Zrotation Yrotation Xrotation
					JOINT lshoulder
					{
						OFFSET 0.122921 0.045205 -0.019046
						CHANNELS 3 Zrotation Yrotation Xrotation
						JOINT lelbow
						{
							OFFSET 0.255332 -0.015649 -0.022946
							CHANNELS 3 Zrotation Yrotation Xrotation
							JOINT lwrist
							{
								OFFSET 0.265709 0.012698 -0.007375
								CHANNELS 3 Zrotation Yrotation Xrotation
								End Site
								{
									OFFSET 0.000000 0.000000 0.000000
								}
							}
						}
					}
				}
				JOINT rclavicle
				{
					OFFSET -0.082954 0.112472 -0.023707
					CHANNELS 3 Zrotation Yrotation Xrotation
					JOINT rshoulder
					{
						OFFSET -0.113228 0.046853 -0.008472
						CHANNELS 3 Zrotation Yrotation Xrotation
						JOINT relbow
						{
							OFFSET -0.260127 -0.014369 -0.031269
							CHANNELS 3 Zrotation Yrotation Xrotation
							JOINT rwrist
							{
								OFFSET -0.269108 0.006794 -0.006027
								CHANNELS 3 Zrotation Yrotation Xrotation
								End Site
								{
									OFFSET 0.000000 0.000000 0.000000
								}
							}
						}
					}
				}
			}
		}
	}
}
MOTION
Frames: 18
Frame Time: 0.033333
1.765162 0.656798 0.990897 -88.026405 3.006807 83.026605 1.603250 -0.703730 6.715828 -2.296598 -14.224044 6.620234 3.466293 9.828501 -17.124351 0.000000 -0.000000 0.000000 3.962706 -2.631983 6.193176 3.647759 2.215637 8.333383 2.740000 -5.494293 -12.374460 0.000000 -0.000000 0.000000 -0.511570 1.541528 5.708807 1.631615 -2.256470 2.993259 0.612112 -2.839225 5.714268 3.596774 1.495289 -2.657100 1.291165 -3.472870 5.004968 -27.780224 7.514243 1.490716 -60.037370 -3.313552 5.883556 9.926832 -16.988558 4.476102 -4.955399 1.073508 -5.265921 25.522109 -5.041586 -1.571265 60.508509 0.966775 10.294224 -15.070542 22.182122 -4.209579 5.847377 0.039301 -6.067476 
1.763818 0.655855 0.990882 -87.710226 2.932763 82.532561 1.431841 -0.688294 7.347280 -2.187686 -14.427168 6.538728 3.457332 9.748614 -17.184158 0.000000 -0.000000 0.000000 3.909271 -2.308974 7.078730 3.545848 1.788178 7.948017 2.848072 -5.602929 -12.357623 0.000000 -0.000000 0.000000 -0.694582 1.551480 6.058156 1.611759 -2.238605 3.047668 0.740485 -2.750062 5.594313 3.637603 0.799205 -1.952726 0.864136 -3.647875 5.109728 -27.613256 7.623253 1.866190 -60.348029 -3.310689 5.815174 10.041761 -17.267872 4.657917 -4.960946 1.044055 -5.669761 25.192290 -5.043573 -1.360847 60.854745 0.676252 10.100237 -15.240107 21.842049 -4.237169 5.691591 -0.087518 -6.236390 
1.763445 0.655062 0.990778 -87.401853 2.926954 82.555988 1.400640 -0.675224 7.191922 -2.248731 -14.617207 6.722918 3.501537 9.647285 -17.215048 0.000000 -0.000000 0.000000 3.789943 -2.422261 7.063978 3.622798 1.589355 8.064516 2.875045 -5.593523 -12.390017 0.000000 -0.000000 0.000000 -0.700007 1.501973 5.984772 1.559124 -2.259818 3.008737 0.691786 -2.729649 5.588625 3.476157 0.818420 -1.552997 1.014042 -3.668309 5.101971 -27.544942 7.776745 1.940749 -60.498829 -3.322436 5.822589 10.087562 -17.680834 4.598819 -4.935363 0.934643 -6.026819 25.172916 -5.155613 -1.209450 61.058356 0.708788 9.931025 -15.345750 21.518099 -4.276446 5.663122 -0.317376 -6.310660 
1.763178 0.654342 0.990611 -87.081048 3.012240 82.619815 1.464204 -0.959266 7.103744 -2.348845 -14.664531 6.747114 3.618056 9.650983 -17.204069 0.000000 -0.000000 0.000000 3.846753 -2.299324 7.110963 3.678664 1.399001 7.954388 2.854587 -5.835156 -12.391740 0.000000 -0.000000 0.000000 -0.715454 1.570750 5.854431 1.622322 -2.188733 3.114812 0.654701 -2.756316 5.521232 3.775504 0.476509 -1.925979 1.279578 -4.052630 5.181936 -27.606054 7.736710 1.862736 -60.583245 -3.688922 5.963367 10.199970 -17.947361 4.214384 -4.928447 0.826013 -6.374662 25.094156 -5.054979 -1.258623 61.536722 0.475148 10.000195 -15.887023 20.800841 -4.474002 5.790577 -1.082175 -6.489041 
1.763170 0.653998 0.990496 -86.873928 3.110858 82.736908 1.586398 -1.038391 6.898201 -2.442417 -14.723029 6.855839 3.630277 9.601534 -17.251240 0.000000 -0.000000 0.000000 3.925599 -2.356718 7.039269 3.708675 1.372303 7.854340 2.854643 -5.927738 -12.283185 0.000000 -0.000000 0.000000 -0.719643 1.558389 5.664267 1.689707 -2.220102 3.153645 0.708973 -2.680150 5.535402 3.866251 0.046968 -1.896958 1.277050 -4.430380 5.114005 -27.676023 7.649109 1.748999 -60.702668 -3.987527 6.071463 10.224311 -18.074970 4.056472 -4.701964 0.948580 -6.438047 25.102413 -4.926483 -1.295177 61.611777 0.544789 10.006227 -15.946081 20.354970 -4.533617 5.794020 -1.462933 -6.388969 
1.762737 0.653030 0.990291 -86.785622 3.094063 82.680304 1.434512 -1.136688 7.026025 -2.304070 -14.762506 6.785668 3.609241 9.585785 -17.278882 0.000000 -0.000000 0.000000 3.880205 -2.369520 7.188379 3.625148 1.314636 7.815660 2.923325 -5.954104 -12.332847 0.000000 -0.000000 0.000000 -0.779042 1.676497 5.618752 1.719141 -2.174657 3.224841 0.753118 -2.686056 5.590265 3.764070 0.356968 -2.146010 1.209888 -4.296559 5.053096 -27.705572 7.423469 1.631360 -60.776710 -4.219380 6.306522 10.220028 -18.724381 3.932695 -4.324519 0.664037 -6.480018 25.302483 -4.842776 -1.376142 61.360308 0.799134 10.016244 -15.786553 20.179044 -4.924186 5.633901 -1.088678 -6.544580 
1.762390 0.652326 0.990267 -86.706850 3.140523 82.724078 1.434321 -1.238501 7.021610 -2.304360 -14.768160 6.766329 3.480225 9.580969 -17.244990 0.000000 -0.000000 0.000000 3.906271 -2.415740 7.291797 3.617911 1.284721 7.708761 2.937324 -6.086550 -12.275067 0.000000 -0.000000 0.000000 -0.678325 1.610804 5.489735 1.672928 -2.152466 3.217912 0.719942 -2.565127 5.748149 3.877402 0.261442 -2.727105 1.488758 -4.662703 4.938416 -27.528629 7.365335 1.195435 -60.902318 -4.541588 6.578456 9.937629 -19.217723 4.093985 -4.523689 0.217247 -6.779805 25.423724 -4.852097 -1.660422 61.246783 0.908215 10.139811 -15.622191 20.175623 -4.787432 5.552518 -1.029276 -6.353250 
1.762086 0.651537 0.990335 -86.694182 3.166415 82.671791 1.429233 -1.191239 7.087839 -2.328482 -14.805153 6.827004 3.513709 9.528333 -17.278617 0.000000 -0.000000 0.000000 3.882971 -2.504890 7.352246 3.565289 1.244469 7.760975 2.963749 -5.970248 -12.298717 0.000000 -0.000000 0.000000 -0.727818 1.658565 5.500931 1.715979 -2.178238 3.256663 0.805420 -2.536193 5.716189 3.935035 -0.010193 -2.611562 1.638043 -4.812328 4.637948 -27.496196 7.111310 1.061181 -61.130127 -4.861396 6.765030 10.002618 -19.912614 4.077242 -4.407912 0.018229 -6.996280 25.177307 -4.603762 -1.617267 61.383184 0.951402 10.123295 -15.419562 20.443432 -4.779837 5.768836 -1.161147 -6.654012 
1.761802 0.650915 0.990158 -86.700007 3.240041 82.566551 1.563347 -1.016552 7.225348 -2.379601 -14.711841 6.747683 3.515711 9.293604 -17.310917 0.000000 -0.000000 0.000000 3.833080 -2.944303 7.413185 3.545552 1.231198 7.914222 2.898529 -5.523204 -12.466750 0.000000 -0.000000 0.000000 -0.751966 1.738659 5.671758 1.729502 -2.230439 3.180576 0.922844 -2.465833 5.290188 3.318574 0.435256 -1.676336 1.430596 -4.089543 5.072074 -27.146720 6.746397 1.558339 -61.610742 -5.096516 6.748027 10.147264 -20.905577 4.065287 -4.051017 0.043707 -7.472669 25.117138 -4.340457 -0.868941 61.301144 1.360996 9.779104 -15.240483 21.035525 -4.885570 5.742969 -0.476324 -6.973615 
1.761292 0.650476 0.990381 -86.484185 3.363485 82.600232 1.667737 -1.258048 7.287526 -2.388297 -14.759181 6.621719 3.463563 9.317110 -17.347900 0.000000 -0.000000 0.000000 4.112625 -2.730688 7.607470 3.348878 1.219230 7.578773 2.967172 -5.943157 -12.370656 0.000000 -0.000000 0.000000 -0.749824 1.672388 5.538045 1.811703 -2.249707 3.256630 0.973507 -2.587075 5.459712 3.843464 0.303488 -2.651496 1.666734 -4.382432 5.062578 -27.212139 6.588507 1.251718 -61.611623 -5.582081 7.075229 10.125827 -22.031531 4.093044 -3.887588 0.002773 -7.582621 25.020545 -4.176591 -1.370707 61.606209 1.305155 10.257534 -15.638486 21.148849 -4.527615 5.762339 -1.104204 -6.601436 
1.760780 0.649901 0.990544 -86.360491 3.391857 82.416038 1.631536 -1.214028 7.556387 -2.288651 -14.842207 6.559680 3.406670 9.108203 -17.414664 0.000000 -0.000000 0.000000 4.149762 -2.697044 7.906670 3.249181 1.009952 7.485236 2.933611 -6.006795 -12.395857 0.000000 -0.000000 0.000000 -0.808005 1.538642 5.730869 1.848091 -2.333197 3.334496 1.060983 -2.548377 5.248570 3.761856 0.302008 -2.554510 1.457511 -4.267513 4.989324 -27.243830 6.252708 1.490080 -61.635213 -5.766371 7.190983 10.269258 -23.144316 3.897321 -3.751982 -0.126473 -7.934182 25.179273 -3.848697 -1.239521 61.292665 1.479055 10.143403 -15.365519 21.838479 -5.046210 5.735910 -0.537896 -7.012720 
1.760687 0.649216 0.990374 -86.275173 3.421875 82.457536 1.589203 -1.329990 7.461248 -2.234864 -14.776397 6.624914 3.448436 9.000141 -17.408763 0.000000 -0.000000 0.000000 4.086598 -2.924182 7.852658 3.259977 0.984324 7.548117 2.876082 -5.879219 -12.539812 0.000000 -0.000000 0.000000 -0.720614 1.590954 5.724138 1.895821 -2.381707 3.255295 1.044861 -2.676210 5.182717 3.816480 0.061159 -2.433165 1.300700 -4.367975 5.098424 -27.223251 6.058022 1.446078 -61.743714 -6.087988 7.337883 10.405811 -23.815064 3.923635 -3.808808 -0.168206 -7.949904 24.971953 -3.765961 -1.264598 61.455751 1.488757 10.190177 -15.468074 22.227110 -5.043753 5.804670 -0.620534 -7.142522 
1.760512 0.648701 0.990283 -86.204001 3.544084 82.540688 1.764509 -1.312728 7.274758 -2.412767 -14.704197 6.825484 3.534270 8.850720 -17.540923 0.000000 -0.000000 0.000000 4.103194 -3.397433 7.770349 3.264222 1.191761 7.558966 2.884530 -5.669123 -12.546051 0.000000 -0.000000 0.000000 -0.640211 1.602353 5.484489 1.900129 -2.467357 3.345230 1.076479 -2.611270 5.211840 3.611722 0.563476 -2.426504 1.392190 -3.901577 5.299884 -27.039379 5.673370 1.485464 -61.954400 -6.389812 7.497104 10.573114 -24.408948 3.912810 -3.765965 -0.328220 -8.258110 25.014108 -3.613410 -1.184232 61.384286 1.761582 10.171345 -15.440062 22.558357 -4.973147 5.883459 -0.774420 -7.269884 
1.760869 0.648285 0.990237 -86.463284 3.496526 82.625822 1.654685 -1.375030 7.276381 -2.356100 -14.547603 6.640574 3.638649 9.048606 -17.481997 0.000000 -0.000000 0.000000 4.051045 -3.048291 7.530041 3.282374 1.023280 7.749507 2.909499 -5.592811 -12.571895 0.000000 -0.000000 0.000000 -0.681219 1.667630 5.516871 1.871831 -2.372747 3.241020 1.108813 -2.484914 5.105830 3.564123 0.735449 -2.479653 1.458105 -3.732372 5.344718 -26.901817 5.477550 1.407989 -62.056352 -6.620388 7.613544 10.627347 -24.837904 3.788769 -3.664656 -0.342518 -8.282610 24.889107 -3.429126 -1.117997 61.545073 1.743674 10.328767 -15.474493 22.855076 -4.920234 6.190945 -0.933344 -7.517242 
1.761170 0.647909 0.990309 -86.474798 3.442845 82.665896 1.557048 -1.437765 7.189095 -2.399892 -14.571804 6.720849 3.638533 9.096255 -17.458014 0.000000 -0.000000 0.000000 3.975627 -2.892762 7.406677 3.283974 0.871641 7.882873 2.946509 -5.569239 -12.555102 0.000000 -0.000000 0.000000 -0.768277 1.689596 5.572675 1.877505 -2.359368 3.190344 1.165678 -2.479806 5.014108 3.546884 0.683878 -2.459047 1.532113 -3.847214 5.387013 -26.849929 5.366432 1.351391 -61.968188 -6.771014 7.677946 10.537711 -25.339048 3.670475 -3.622058 -0.234749 -8.231678 24.991500 -3.322878 -1.245340 61.419515 1.765766 10.384222 -15.481875 23.227459 -4.974718 6.221528 -1.011020 -7.400524 
1.762059 0.647367 0.989916 -86.765918 3.315578 82.945352 1.377324 -1.441110 6.826047 -2.435350 -14.370807 6.759809 3.779742 9.246258 -17.372941 0.000000 -0.000000 0.000000 3.732021 -2.526797 6.857706 3.418061 0.724552 8.221830 3.041385 -5.506958 -12.531806 0.000000 -0.000000 0.000000 -0.808606 1.797708 5.375856 1.854364 -2.201165 3.105990 1.083726 -2.497327 5.057882 3.473138 1.044165 -2.430353 1.623874 -3.555825 5.372353 -26.714169 5.299507 1.238121 -62.049370 -6.894227 7.791380 10.580896 -25.547557 3.645881 -3.768384 -0.299401 -8.419744 24.928192 -3.336554 -1.189485 61.556594 1.983823 10.592837 -15.585795 23.428722 -4.924558 6.290019 -0.851676 -7.544727 
1.761265 0.646985 0.989951 -86.742922 3.335228 82.785535 1.360576 -1.434301 7.129806 -2.380898 -14.417374 6.645615 3.755612 9.229360 -17.403147 0.000000 -0.000000 0.000000 3.743618 -2.515479 7.220798 3.394972 0.763340 7.992299 3.038405 -5.529657 -12.501714 0.000000 -0.000000 0.000000 -0.824415 1.775794 5.360026 1.885856 -2.276780 3.239692 1.122232 -2.470750 5.039766 3.537207 0.597395 -2.339108 1.423939 -3.919604 5.528332 -26.683589 5.287230 1.237279 -62.143123 -6.985774 7.826690 10.748671 -25.669852 3.681616 -3.553615 -0.510411 -8.469345 24.815230 -3.210039 -1.113611 61.646392 2.050777 10.608675 -15.602091 23.517514 -4.894545 6.156865 -0.790289 -7.555402 
1.761955 0.646756 0.989847 -86.870641 3.345263 82.873402 1.329883 -1.570867 6.954427 -2.398557 -14.265983 6.739016 3.781631 9.342973 -17.439149 0.000000 -0.000000 0.000000 3.761649 -2.326667 6.937586 3.409531 0.700531 8.214990 3.037065 -5.559892 -12.532878 0.000000 -0.000000 0.000000 -0.819919 1.781784 5.437944 1.899285 -2.237053 3.146752 1.126037 -2.465517 5.036270 3.551544 0.715119 -2.475064 1.324333 -3.859240 5.631115 -26.724230 5.306498 1.190326 -62.101159 -7.020308 7.836598 10.763349 -25.678325 3.554431 -3.514030 -0.492050 -8.416817 24.844255 -3.196566 -1.101460 61.656253 2.205532 10.712188 -15.592612 23.605312 -4.961272 6.133470 -0.821838 -7.651447 
